<svg id="Vrstva_1" data-name="Vrstva 1" xmlns="http://www.w3.org/2000/svg" viewBox="0 0 227.98 50"><defs><style>.cls-1{fill:#fff;fill-rule:evenodd;}</style></defs><g id="Symbols"><g id="Elements-_-Logo-ALIEN" data-name="Elements-/-Logo-ALIEN"><g id="logo_mediaguru_old" data-name="logo mediaguru old"><path id="mediaguru" class="cls-1" d="M218.14,36.81c6,0,9.84-3,9.84-9.75V15.42h-5.91V27.24c0,2.94-1.53,4.32-3.87,4.32s-3.87-1.44-3.87-4.47V15.42h-5.91V27.21c0,6.57,3.75,9.6,9.72,9.6M91.87,31.26h2.37c3.48,0,5.79-1.92,5.79-5.31v-.06c0-3.36-2.31-5.31-5.79-5.31H91.87Zm-5.82,5.16v-21h8.1c7.5,0,11.85,4.32,11.85,10.38v.06c0,6.06-4.41,10.56-12,10.56ZM192.94,25.5v-5h3.81c1.95,0,3.15.84,3.15,2.49V23c0,1.53-1.14,2.49-3.12,2.49Zm-5.82,10.92v-21h9.93c3.21,0,5.43.84,6.84,2.28a6.51,6.51,0,0,1,1.86,4.89v.06a6.64,6.64,0,0,1-4.32,6.45l5,7.32h-6.72l-4.23-6.36h-2.55v6.36Zm-130.95-21h6.15v21H56.53V24.36l-5.37,8.22H51L45.7,24.42v12H40v-21h6.15l5,8.13Zm9.87,0H82.93v5H71.8v3.18H81.88v4.59H71.8v3.33H83.08v5H66Zm43.08,21v-21H115v21Zm17.34-8.28,2.37-6,2.34,6Zm-9.33,8.28,8.94-21.15h5.61l8.94,21.15h-6.24l-1.53-3.75h-8.1l-1.5,3.75Zm34.89.42c-6.54,0-11.43-4.5-11.43-10.86v-.06c0-6.12,4.8-10.92,11.31-10.92a12.25,12.25,0,0,1,8.52,3.06L157,22.17a7.41,7.41,0,0,0-5.07-2A5.52,5.52,0,0,0,146.56,26V26a5.55,5.55,0,0,0,5.7,5.82,5.93,5.93,0,0,0,3.36-.87V28.41h-4.14V24.15h9.66V33.6A14.2,14.2,0,0,1,152,36.84Zm21.81,0c-6,0-9.72-3-9.72-9.6V15.42H170V27.09c0,3,1.53,4.47,3.87,4.47s3.87-1.38,3.87-4.32V15.42h5.91V27.06C183.67,33.84,179.8,36.81,173.83,36.81Z" transform="translate(0)"/><g id="UFOUN"><path id="Fill-1" class="cls-1" d="M16.48,0A13,13,0,0,0,4.7,18.85C6,21.54,8.15,26.47,8.15,31.25H5.56A1.5,1.5,0,0,0,4,32L.2,38.58a1.46,1.46,0,0,0,.54,2l.07,0a1.5,1.5,0,0,0,2-.54l1.63-2.8a1.52,1.52,0,0,0,0,.21V48.16a1.86,1.86,0,0,0,3.71,0V43.53a5,5,0,0,0,3,0v4.64a1.86,1.86,0,0,0,3.71,0V37.66l1.41,2.43a1.49,1.49,0,0,0,2,.54l.08,0a1.47,1.47,0,0,0,.54-2L15,32a1.49,1.49,0,0,0-1.49-.72h-.95s2.55-2,3.34-2.57c2.59-1.84,5.35-3.26,7.33-4.44A13,13,0,0,0,16.48,0" transform="translate(0)"/><path id="Fill-4" class="cls-1" d="M27,12c0,2.76-4.7,5-10.5,5S6,14.76,6,12s4.7-5,10.5-5S27,9.24,27,12" transform="translate(0)"/><path id="Fill-6" class="cls-1" d="M19.5,12a3,3,0,1,1-3-3,3,3,0,0,1,3,3" transform="translate(0)"/></g></g></g></g></svg>