<svg id="Vrstva_1" data-name="Vrstva 1" xmlns="http://www.w3.org/2000/svg" viewBox="0 0 555.78 174.61"><defs><style>.cls-1{fill:#fff;}</style></defs><polyline class="cls-1" points="428.26 57.35 428.26 21.44 372.77 21.44 372.77 152 428.26 152 428.26 116.19 421.73 116.19 421.73 138.94 395.62 138.94 395.62 92.91 418.47 92.91 418.47 79.85 395.62 79.85 395.57 34.5 421.73 34.5 421.73 57.35 428.26 57.35"/><polyline class="cls-1" points="252.85 57.35 252.84 21.44 197.36 21.44 197.36 152 220.21 152 220.21 92.91 243.06 92.91 243.06 79.85 220.21 79.85 220.19 34.5 246.32 34.5 246.32 57.35 252.85 57.35"/><polyline class="cls-1" points="336.69 116.09 327.14 152 271.66 152 306.06 21.44 328.91 21.44 297.93 138.94 324.09 138.94 330.16 116.09 336.69 116.09"/><polyline class="cls-1" points="155.65 57.35 155.65 21.44 100.16 21.44 100.16 152 155.65 152 155.65 116.19 149.12 116.19 149.12 138.94 123.01 138.94 123.01 92.91 145.85 92.91 145.85 79.85 123.01 79.85 123 34.5 149.12 34.5 149.12 57.35 155.65 57.35"/><path class="cls-1" d="M35.9,80.19h-13V34.5h13V80.19m22.84-13V41q0-19.59-19.58-19.6H0V152H22.91V93.25h13V152H58.74V105.88c0-12.63-6.51-17.41-16.31-19v-.23C52.29,84.83,58.74,80.2,58.74,67.14Z" transform="translate(0)"/><polyline class="cls-1" points="555.78 0 510.48 54.14 465.17 0 465.17 66.33 482.73 87.31 465.17 108.28 465.17 174.61 510.48 120.47 555.78 174.61 555.78 108.28 538.23 87.31 555.78 66.33 555.78 0"/></svg>