<svg id="Vrstva_1" data-name="Vrstva 1" xmlns="http://www.w3.org/2000/svg" viewBox="0 0 209.84 41.76"><defs><style>.cls-1{fill:#fff;fill-rule:evenodd;}</style></defs><path class="cls-1" d="M20.73,2.8c-1.18.19-2.36.41-3.53.66-.77.17-1.54.32-2.3.51s-1.43.33-2.12.55-1.32.43-2,.68A12.63,12.63,0,0,0,7.29,7.25,10.47,10.47,0,0,0,5.55,9a11.67,11.67,0,0,0-.93,1.5,3.65,3.65,0,0,0-.46,1.65,5.61,5.61,0,0,0,2.29,4.13c.41.34.84.65,1.28,1a30.05,30.05,0,0,0,4.14,2.35q2.22,1,4.48,2c1.42.61,2.88,1.12,4.35,1.6l1.28.42c1.33.44,2.69.85,4,1.32.83.3,1.71.58,2.53.95A13.28,13.28,0,0,1,31,27.23a4.61,4.61,0,0,1,1.26,1.34,3.44,3.44,0,0,1,.53,1.73A2.91,2.91,0,0,1,32.34,32a7.92,7.92,0,0,1-3.65,2.75A60,60,0,0,1,22.33,37c-1.24.36-2.47.72-3.71,1s-2.52.66-3.77,1-2.51.6-3.77.87l-2.17.45-1.29.27-2.71.58-3.09.67L.93,42c-.27.06-1.27.29-.53.25,1-.06,3.78-.3,9.66-1.08,2.13-.35,4.27-.65,6.4-1q4-.64,7.92-1.56c.75-.17,1.49-.36,2.24-.56l1.46-.43c2.06-.64,5.36-1.76,6.15-2.09,3-1.3,4.85-2.28,5.82-4.61a5.54,5.54,0,0,0,.38-2.64,5.87,5.87,0,0,0-.8-2.34,8.25,8.25,0,0,0-1.56-1.78,17.06,17.06,0,0,0-3.61-2.46c-.37-.19-.75-.37-1.13-.54s-.95-.42-1.43-.62c-.67-.28-1.35-.53-2-.76-1.8-.61-3.62-1.15-5.42-1.74-1-.32-2-.69-3-1.1-.41-.17-.82-.36-1.23-.55s-.94-.49-1.4-.76-1.49-.92-1.24-1.71c.18-.57.8-.79,1.31-1a12.16,12.16,0,0,1,1.45-.45c1.49-.38,3-.63,4.52-.95l1.32-.29a24.68,24.68,0,0,0,3.5-.92,4.06,4.06,0,0,0,2.55-2,5.24,5.24,0,0,0-.91-4.45c-.3-.46-.61-.92-.94-1.37-.44-.61-.93-1.19-1.4-1.77a.59.59,0,0,0-.7-.18c-.3.1-1.1,1-7.52,2.25" transform="translate(-0.14 -0.51)"/><path class="cls-1" d="M119.21,16.15l.09-.2.1-.17.08-.16.09-.14.06-.13.07-.1,0-.1.06-.06.16-.27.09-.16.11-.16.23-.39.15-.22.14-.22,0,0,0,0,.11,0,.06,0,.07.09.15.21.15.28.17.38.18.46.2.55,0,.1.07.16.08.21.12.27v.05l0,.06,0,.12,0,.1,0,.1v.27l-.07.1,0,.06-.13.05-.16.05-.21,0h-.25l-1.23.09H120l-.19,0H119l-.14,0-.09,0-.07,0,0-.06,0-.09,0-.08,0-.12.06-.12.09-.16.09-.13.07-.13.07-.1.06-.1.05-.07,0-.07,0,0ZM111.37,22l.18.05c.67.19,1,.63.48,1.21a5,5,0,0,0-.42.6l-.11.18a1.27,1.27,0,0,0-.21.57v.11a2.42,2.42,0,0,0,.42.87,16.42,16.42,0,0,0,1,1.47,9,9,0,0,0,.89-1.29c.28-.38.61-.72.9-1.1a4.54,4.54,0,0,1,1.28-1.23,4.48,4.48,0,0,1,1.73-.49c.6-.06,1.19-.09,1.79-.12,1.22-.06,2.43-.2,3.65-.32a3.12,3.12,0,0,1,1.58.07,4.39,4.39,0,0,1,1,.93c.38.4.76.8,1.12,1.22s.8,1,1.28,1.47a8.12,8.12,0,0,0,.95.79l.17.11c.6.3,1-.09,1.15-.7a3.77,3.77,0,0,0-.74-2.51q-.34-.62-.63-1.26c-.17-.35-.34-.89,0-1.23s.7-.27,1-.35.74-.21,1.11-.28c.75-.15,1.49-.35,2.25-.45.42-.05,1.11-.36,1.48,0s0,1.37-.16,1.88a11.27,11.27,0,0,0-.7,2.62,3.24,3.24,0,0,0,.64,2.35,1.32,1.32,0,0,0,1.64.54,2.92,2.92,0,0,0,1.05-1.37c.41-.94.69-1.92,1-2.9s.59-1.75.92-2.61c.24-.63.52-1.25.77-1.88.16-.41.37-.79.54-1.2s.19-.78.53-1,.92.48,1.12.74c.37.49.71,1,1.06,1.5a4.46,4.46,0,0,0,1.34,1.58c1.06.54,2-.73,2.61-1.4q.62-.7,1.26-1.41l1.37-1.48c.29-.32.68-.95,1.16-1s.52.45.55.77c.19,1.56.26,3.13.49,4.69.09.58.21,1.15.31,1.73l.15.81c.07.39.15.77.23,1.16.18.79.37,1.59.61,2.37a3.87,3.87,0,0,0,1,1.84,1.58,1.58,0,0,0,2.28-.4,1.68,1.68,0,0,0,.16-.54,4.17,4.17,0,0,0,0-1.17c-.11-1.37-.5-2.7-.52-4.08,0-.57,0-1.14.08-1.71.1-1.32.27-2.64.34-4a14.21,14.21,0,0,0-.23-4.91,5,5,0,0,0-.57-1.3,5.34,5.34,0,0,0-.76-1,4.07,4.07,0,0,0-1-.8,3.24,3.24,0,0,0-1.26-.38,4.8,4.8,0,0,0-2.84,1.08A13.81,13.81,0,0,0,148,11.14a42.56,42.56,0,0,0-2.95,3.35c-.27.35-.58,1-1.11.9s-1-1-1.15-1.5-.4-.92-.62-1.37-.57-1.14-.84-1.72a6,6,0,0,0-.81-1.38,3.14,3.14,0,0,0-1.48-.87,1.79,1.79,0,0,0-1.38-.06c-.53.31-.42,1.09-.46,1.6s-.08.9-.12,1.35a27.83,27.83,0,0,1-.43,3.3,2.34,2.34,0,0,1-.69,1.39,2,2,0,0,1-1.1.22c-.3,0-.61,0-.92,0-.7,0-1.39,0-2.09,0l-1.81.07c-.53,0-1.07.08-1.61.08a4.2,4.2,0,0,1-1.9-.13,2.16,2.16,0,0,1-.88-1.11c-.29-.61-.65-1.17-1-1.74s-.61-1-.92-1.53c-.45-.73-.9-1.46-1.36-2.18-.3-.48-.61-.95-.93-1.42a2.57,2.57,0,0,0-1-1,.72.72,0,0,0-.93.55c-.06.27,0,.54,0,.81a4.31,4.31,0,0,1-.29.83,11.47,11.47,0,0,1-.87,1.52c-1.06,1.64-1.86,3.46-2.81,5.17-.18.32-.37.63-.55.94s-.4.82-.93,1-1,.06-1.48.18-.77.65-.87,1.21-.1.94-.17,1.41a4.28,4.28,0,0,0-.11,1.07Zm-65.19,9.6a14.48,14.48,0,0,1-1.47.08,1.28,1.28,0,0,1-1.14-.88,13.36,13.36,0,0,1-.54-1.9,5.1,5.1,0,0,1-.18-1.78,1.07,1.07,0,0,1,.36-.8c.43-.35,1-.12,1.48-.37a1.38,1.38,0,0,0,.57-1.14,14.6,14.6,0,0,0,0-2.19c-.11-1.84,0-3.72-.22-5.54-.05-.43-.19-.91-.66-1-.94-.24-.95-1.16-1-2a3.41,3.41,0,0,1,.16-1.55,2.43,2.43,0,0,1,1.63-1.16c.62-.19,1.24-.36,1.87-.53s1.29-.26,1.94-.37l2-.31c.65-.1,1.31-.19,2-.26s1.24-.15,1.86-.18,1.46-.09,2.19-.12,1.3,0,2,0,1.29,0,1.94.06a18.65,18.65,0,0,1,2,.16,6.3,6.3,0,0,1,2.68.82c.85.56,1.41,1.7.57,2.54s-2.22.71-3.32.71c-.91,0-1.81,0-2.72.05s-1.73.11-2.61.17L55,14.23l-2.52.23c-.67.06-1.34.13-2,.25a3.1,3.1,0,0,0-1.62.59,1.17,1.17,0,0,0-.2,1.19c.26.75,1.41.56,2,.54,1.38,0,2.75-.26,4.12-.35.64-.05,1.27-.07,1.9-.11a21.84,21.84,0,0,1,2.29,0,13.06,13.06,0,0,1,2,.24,10.83,10.83,0,0,1,2.3.81c.94.33.79,1.51.64,2.27a1.42,1.42,0,0,1-.58,1,6.17,6.17,0,0,1-2.93.4c-.91,0-1.82.1-2.73.18-1.43.14-2.86.28-4.28.45-.88.11-1.75.26-2.62.35a3.44,3.44,0,0,0-1.85.42l-.09.08-.06,0,0,.09-.05.11c-.07.36-.44,1.56-.07,1.85l.08,0h.13c.48,0,1,0,1.43,0,.72,0,1.45-.06,2.18-.12l4.19-.35c.91-.08,1.85-.13,2.77-.21,1.38-.12,2.76-.2,4.14-.25a6.47,6.47,0,0,0,2.43-.36c.91-.41,1.66-1.11,2.55-1.57,1.13-.57,2.28-1.08,3.42-1.63,1.4-.66,2.77-1.43,4.19-2.05l3.29-1.41A14.91,14.91,0,0,0,81,16.11c.35-.2,1.26-.64,1-1.18-.12-.28-.48-.32-.75-.36a27.78,27.78,0,0,0-5.29.32c-2.61.45-3,.78-3.69.07a2.49,2.49,0,0,1-.34-2.13,5.69,5.69,0,0,1,.7-2.14c.75-1,3.24-1.09,4.4-1.18.6,0,1.2-.06,1.81-.06.84,0,1.68.05,2.52.05s1.46.08,2.19.15a12.84,12.84,0,0,1,2.54.35,7.15,7.15,0,0,1,.77.29A5.81,5.81,0,0,1,89,11.89a3.57,3.57,0,0,1,.66,1.44,2.16,2.16,0,0,1,.06.76,2.08,2.08,0,0,1-.2.71l0,.07a2.26,2.26,0,0,1-.54.65,12.87,12.87,0,0,1-3.61,1.65c-.59.24-1.17.52-1.75.78-1.62.73-3.24,1.49-4.9,2.16-1.36.55-2.72,1.12-4,1.79a2.8,2.8,0,0,0-1.1.81c-.22.39.25.38.55.39s.67,0,1,0c1-.08,2-.18,3-.29s2.07-.2,3.1-.33,1.94-.25,2.91-.35a29.88,29.88,0,0,1,3.14-.16,19.52,19.52,0,0,1,3.15.19l.15,0h.28a1.14,1.14,0,0,0,1.13-.5,18.78,18.78,0,0,0,.85-2.31c.34-1,.69-1.95,1-2.92L94,16c.41-1.1.8-2.2,1.24-3.28.18-.44.36-.88.5-1.33a6.85,6.85,0,0,1,.32-1c.27-.52.75-.85,1.29-.48a3.72,3.72,0,0,1,1,1.3,5.77,5.77,0,0,1,.61,1.5,2.81,2.81,0,0,1-.17,1.54c-.17.54-.39,1.07-.53,1.61-.31,1.16.85,2.1,1.74,2.64a20.05,20.05,0,0,0,2.59,1.16,10.34,10.34,0,0,0,2,.69,1.69,1.69,0,0,0,1.29-.1,3.41,3.41,0,0,0,1-1.89c.24-.8.42-1.62.6-2.44a17.51,17.51,0,0,0,.33-2.05c.06-.54.11-1.08.15-1.63s0-1.38,0-2.09a2.14,2.14,0,0,1,.4-1.39,1,1,0,0,1,1.48.21l.13.16a5.45,5.45,0,0,1,.49,1.14,12.37,12.37,0,0,1,.4,2.17c.06.6.1,1.21.12,1.82a35.49,35.49,0,0,1-.36,6.26c-.15,1.11-.4,2.2-.64,3.3a9.14,9.14,0,0,1-.5,1.79,4.32,4.32,0,0,1-.7,1,2.06,2.06,0,0,1-.45.38,3.17,3.17,0,0,1-2,.28,10.82,10.82,0,0,1-2.64-.63c-.54-.19-1.07-.4-1.59-.64s-1.06-.5-1.57-.79-1-.6-1.49-.94a9,9,0,0,1-1.3-1.08c-.35-.35-.61-.8-.93-1.17s-.61-.52-.84,0a8.2,8.2,0,0,0-.29,1.08c-.14.65-.33,1.28-.53,1.91s-1,2.34-1.94,1.54c-.29-.26-.5-.59-.94-.59a6.78,6.78,0,0,0-1.32.29c-.46.1-.94.15-1.4.25l-2.66.56c-.59.11-1.18.19-1.76.29s-1.14.17-1.71.25-1.17.18-1.76.25l-2.75.32-2.19.25-1.83.19c-1,.1-2,.18-3.07.22a20.9,20.9,0,0,1-4.68-.16A2.35,2.35,0,0,1,66,28.41c-.18-.17,0-.48-.17-.68l0,0-.06-.06,0,0-.06,0H65.5l-.07,0-.07,0-.07.05-.13.09-.08.1L65,28l0,.12a2.71,2.71,0,0,1-2.47,1.59l-16.33,1.9m152.44-8.19a37.31,37.31,0,0,1-6.34.3,6.58,6.58,0,0,1-2.51-.51C188,22,194.12,20,194.87,19.76c2.11-.74,6.37-2,6.37-2s4-1,4.11-3.11c.15-2.58-2.54-3.75-4.59-4.39a22.55,22.55,0,0,0-2.57-.42c-.59-.05-1.17-.09-1.76-.1a20.31,20.31,0,0,0-3.3.2c-1.13.13-3.53.2-3.88,1.6-.18.72-1,2.19-.31,2.84s1.91.4,2.8.32c1.23-.12,2.45-.35,3.68-.47.91-.09,2.09-.29,2.83.37.92.81-1.51,1.59-2,1.79-1.84.77-3.75,1.33-5.59,2.08s-3.46,1.39-5.14,2.19c-.77.36-1.49.81-2.22,1.24l-.35-.23-2.12.22-2.12.17c-1.42.12-2.86.16-4.29.23a3.59,3.59,0,0,1-2.39-.48c-1.23-1.15-.54-2.74.27-3.86a11.25,11.25,0,0,1,3.41-2.87,12.19,12.19,0,0,1,2.77-1.21,13.92,13.92,0,0,1,2-.46c.1.19.21.37.32.56a8.86,8.86,0,0,0,1.79-.64c.49-.25,1.17-.75,1.18-1.35a2.43,2.43,0,0,0-1.2-1.85,4.09,4.09,0,0,0-2.16-.55,17.17,17.17,0,0,0-2.49.15,12.51,12.51,0,0,0-1.72.36,13.06,13.06,0,0,0-2.68,1.11,13.41,13.41,0,0,0-3.12,2.39,8.44,8.44,0,0,0-1.12,1.46,9.63,9.63,0,0,0-1,2.15,9.32,9.32,0,0,0,.49,6.55,7.75,7.75,0,0,0,2.92,3.27,7.91,7.91,0,0,0,5.49.95,11.72,11.72,0,0,0,2.17-.63,16.93,16.93,0,0,0,2.19-.93,8.58,8.58,0,0,1,1.73-.81c.24.3.37.67.63,1a5,5,0,0,0,.84.75,4.22,4.22,0,0,0,2.08.74c1.9.22,3.83.33,5.74.36a43.94,43.94,0,0,0,4.59-.22c1-.09,2-.22,2.95-.34a24.79,24.79,0,0,0,7.25-2A7.41,7.41,0,0,0,210,24a5.32,5.32,0,0,0-.93-.45,12.88,12.88,0,0,0-6.29-.55c-1,.12-1.92.21-2.88.3l-1.25.1m-33.26,2.2a2.46,2.46,0,0,0-.13-1A2.71,2.71,0,0,0,163.4,23a2.81,2.81,0,0,0-2.11.45,3,3,0,0,0-.8,1,2.87,2.87,0,0,0,.2,2.67,2.68,2.68,0,0,0,4.67-1.5" transform="translate(-0.14 -0.51)"/></svg>